<?xml version="1.0" encoding="UTF-8"?>
<svg xmlns="http://www.w3.org/2000/svg" xmlns:xlink="http://www.w3.org/1999/xlink" width="40px" height="40px" viewBox="0 0 40 40" version="1.1">
<g id="surface1">
<path style=" stroke:none;fill-rule:nonzero;fill:rgb(0%,0%,0%);fill-opacity:1;" d="M 36.117188 8.769531 L 32.8125 8.769531 L 32.8125 3.730469 C 32.8125 2.351562 31.691406 1.230469 30.3125 1.230469 L 9.6875 1.230469 C 8.308594 1.230469 7.1875 2.351562 7.1875 3.730469 L 7.1875 8.769531 L 3.882812 8.769531 C 1.742188 8.769531 0 10.511719 0 12.652344 L 0 29.070312 C 0 31.210938 1.742188 32.953125 3.882812 32.953125 L 5.371094 32.953125 C 5.714844 32.953125 5.996094 32.675781 5.996094 32.328125 C 5.996094 31.984375 5.714844 31.703125 5.371094 31.703125 L 3.882812 31.703125 C 2.429688 31.703125 1.25 30.523438 1.25 29.070312 L 1.25 12.652344 C 1.25 11.199219 2.429688 10.019531 3.882812 10.019531 L 36.117188 10.019531 C 37.570312 10.019531 38.75 11.199219 38.75 12.652344 L 38.75 29.070312 C 38.75 30.523438 37.570312 31.703125 36.117188 31.703125 L 35 31.703125 C 34.65625 31.703125 34.375 31.984375 34.375 32.328125 C 34.375 32.675781 34.65625 32.953125 35 32.953125 L 36.117188 32.953125 C 38.257812 32.953125 40 31.210938 40 29.070312 L 40 12.652344 C 40 10.511719 38.257812 8.769531 36.117188 8.769531 Z M 8.4375 3.730469 C 8.4375 3.042969 9 2.480469 9.6875 2.480469 L 30.3125 2.480469 C 31 2.480469 31.5625 3.042969 31.5625 3.730469 L 31.5625 8.730469 L 8.4375 8.730469 Z M 8.4375 3.730469 "/>
<path style=" stroke:none;fill-rule:nonzero;fill:rgb(0%,0%,0%);fill-opacity:1;" d="M 27.5 28.144531 L 12.5 28.144531 C 12.15625 28.144531 11.875 28.425781 11.875 28.769531 C 11.875 29.113281 12.15625 29.394531 12.5 29.394531 L 27.5 29.394531 C 27.84375 29.394531 28.125 29.113281 28.125 28.769531 C 28.125 28.425781 27.84375 28.144531 27.5 28.144531 Z M 27.5 28.144531 "/>
<path style=" stroke:none;fill-rule:nonzero;fill:rgb(0%,0%,0%);fill-opacity:1;" d="M 27.5 32.519531 L 12.5 32.519531 C 12.15625 32.519531 11.875 32.800781 11.875 33.144531 C 11.875 33.488281 12.15625 33.769531 12.5 33.769531 L 27.5 33.769531 C 27.84375 33.769531 28.125 33.488281 28.125 33.144531 C 28.125 32.800781 27.84375 32.519531 27.5 32.519531 Z M 27.5 32.519531 "/>
<path style=" stroke:none;fill-rule:nonzero;fill:rgb(0%,0%,0%);fill-opacity:1;" d="M 6.222656 13.648438 C 6.222656 14.339844 5.664062 14.898438 4.972656 14.898438 C 4.285156 14.898438 3.722656 14.339844 3.722656 13.648438 C 3.722656 12.960938 4.285156 12.398438 4.972656 12.398438 C 5.664062 12.398438 6.222656 12.960938 6.222656 13.648438 Z M 6.222656 13.648438 "/>
<path style=" stroke:none;fill-rule:nonzero;fill:rgb(0%,0%,0%);fill-opacity:1;" d="M 10.179688 13.648438 C 10.179688 14.339844 9.617188 14.898438 8.929688 14.898438 C 8.238281 14.898438 7.679688 14.339844 7.679688 13.648438 C 7.679688 12.960938 8.238281 12.398438 8.929688 12.398438 C 9.617188 12.398438 10.179688 12.960938 10.179688 13.648438 Z M 10.179688 13.648438 "/>
<path style=" stroke:none;fill-rule:nonzero;fill:rgb(0%,0%,0%);fill-opacity:1;" d="M 14.132812 13.648438 C 14.132812 14.339844 13.574219 14.898438 12.882812 14.898438 C 12.191406 14.898438 11.632812 14.339844 11.632812 13.648438 C 11.632812 12.960938 12.191406 12.398438 12.882812 12.398438 C 13.574219 12.398438 14.132812 12.960938 14.132812 13.648438 Z M 14.132812 13.648438 "/>
<path style=" stroke:none;fill-rule:nonzero;fill:rgb(0%,0%,0%);fill-opacity:1;" d="M 6.875 38.769531 L 33.125 38.769531 L 33.125 22.519531 L 6.875 22.519531 Z M 8.378906 24.023438 L 31.621094 24.023438 L 31.621094 37.265625 L 8.378906 37.265625 Z M 8.378906 24.023438 "/>
</g>
</svg>
